<?xml version="1.0" encoding="utf-8"?>
<!-- Generator: Adobe Illustrator 16.0.0, SVG Export Plug-In . SVG Version: 6.00 Build 0)  -->
<!DOCTYPE svg PUBLIC "-//W3C//DTD SVG 1.1//EN" "http://www.w3.org/Graphics/SVG/1.1/DTD/svg11.dtd">
<svg version="1.1" id="Artwork" xmlns="http://www.w3.org/2000/svg" xmlns:xlink="http://www.w3.org/1999/xlink" x="0px" y="0px"
	 width="68.25px" height="18.333px" viewBox="0 0 68.25 18.333" enable-background="new 0 0 68.25 18.333" xml:space="preserve">
<polyline fill="none" stroke="#27AAE1" stroke-miterlimit="10" points="44.584,3.625 44.938,3.625 44.938,15.063 65.25,15.063 "/>
<line fill="none" stroke="#27AAE1" stroke-miterlimit="10" x1="41.875" y1="3.625" x2="43.792" y2="3.625"/>
<path fill="none" stroke="#27AAE1" stroke-miterlimit="10" d="M41.875,3.625"/>
<path fill="none" stroke="#27AAE1" stroke-miterlimit="10" d="M40.959,3.625"/>
<line fill="none" stroke="#27AAE1" stroke-miterlimit="10" x1="39.042" y1="3.625" x2="40.959" y2="3.625"/>
<path fill="none" stroke="#27AAE1" stroke-miterlimit="10" d="M39.042,3.625"/>
<path fill="none" stroke="#27AAE1" stroke-miterlimit="10" d="M38.167,3.625"/>
<polyline fill="none" stroke="#27AAE1" stroke-miterlimit="10" points="15.75,3.625 16.125,3.625 16.125,15.063 37.625,15.063 
	37.625,3.625 38.167,3.625 "/>
<path fill="none" stroke="#27AAE1" stroke-miterlimit="10" d="M15.75,3.625"/>
<path fill="none" stroke="#27AAE1" stroke-miterlimit="10" d="M15.084,3.625"/>
<line fill="none" stroke="#27AAE1" stroke-miterlimit="10" x1="12.875" y1="3.625" x2="15.084" y2="3.625"/>
<path fill="none" stroke="#27AAE1" stroke-miterlimit="10" d="M12.875,3.625"/>
<path fill="none" stroke="#27AAE1" stroke-miterlimit="10" d="M12.25,3.625"/>
<line fill="none" stroke="#27AAE1" stroke-miterlimit="10" x1="10.209" y1="3.625" x2="12.25" y2="3.625"/>
<path fill="none" stroke="#27AAE1" stroke-miterlimit="10" d="M10.209,3.625"/>
<path fill="none" stroke="#27AAE1" stroke-miterlimit="10" d="M9.459,3.625"/>
<polyline fill="none" stroke="#27AAE1" stroke-miterlimit="10" points="4.212,15.063 8.688,15.063 8.688,3.625 9.459,3.625 "/>
</svg>
