<?xml version="1.0" encoding="utf-8"?>
<!-- Generator: Adobe Illustrator 16.0.0, SVG Export Plug-In . SVG Version: 6.00 Build 0)  -->
<!DOCTYPE svg PUBLIC "-//W3C//DTD SVG 1.1//EN" "http://www.w3.org/Graphics/SVG/1.1/DTD/svg11.dtd">
<svg version="1.1" id="Artwork" xmlns="http://www.w3.org/2000/svg" xmlns:xlink="http://www.w3.org/1999/xlink" x="0px" y="0px"
	 width="68.25px" height="18.333px" viewBox="0 0 68.25 18.333" enable-background="new 0 0 68.25 18.333" xml:space="preserve">
<polyline fill="none" stroke="#27AAE1" stroke-miterlimit="10" points="51.209,4.417 52.313,4.417 52.313,15.292 65.25,15.292 "/>
<path fill="none" stroke="#27AAE1" stroke-miterlimit="10" d="M51.209,4.417"/>
<path fill="none" stroke="#27AAE1" stroke-miterlimit="10" d="M50.417,4.417"/>
<line fill="none" stroke="#27AAE1" stroke-miterlimit="10" x1="48.292" y1="4.417" x2="50.417" y2="4.417"/>
<path fill="none" stroke="#27AAE1" stroke-miterlimit="10" d="M48.292,4.417"/>
<path fill="none" stroke="#27AAE1" stroke-miterlimit="10" d="M47.625,4.417"/>
<polyline fill="none" stroke="#27AAE1" stroke-miterlimit="10" points="41.542,4.417 42.688,4.417 42.688,15.292 46.375,15.292 
	46.375,4.417 47.625,4.417 "/>
<path fill="none" stroke="#27AAE1" stroke-miterlimit="10" d="M41.542,4.417"/>
<path fill="none" stroke="#27AAE1" stroke-miterlimit="10" d="M40.75,4.417"/>
<line fill="none" stroke="#27AAE1" stroke-miterlimit="10" x1="38.75" y1="4.417" x2="40.75" y2="4.417"/>
<path fill="none" stroke="#27AAE1" stroke-miterlimit="10" d="M38.75,4.417"/>
<path fill="none" stroke="#27AAE1" stroke-miterlimit="10" d="M38,4.417"/>
<polyline fill="none" stroke="#27AAE1" stroke-miterlimit="10" points="23.125,4.417 24.063,4.417 24.063,15.292 37.063,15.292 
	37.063,4.417 38,4.417 "/>
<path fill="none" stroke="#27AAE1" stroke-miterlimit="10" d="M23.125,4.417"/>
<path fill="none" stroke="#27AAE1" stroke-miterlimit="10" d="M22.083,4.417"/>
<line fill="none" stroke="#27AAE1" stroke-miterlimit="10" x1="20.375" y1="4.417" x2="22.083" y2="4.417"/>
<path fill="none" stroke="#27AAE1" stroke-miterlimit="10" d="M20.375,4.417"/>
<path fill="none" stroke="#27AAE1" stroke-miterlimit="10" d="M19.375,4.417"/>
<polyline fill="none" stroke="#27AAE1" stroke-miterlimit="10" points="13.917,4.417 14.625,4.417 14.625,15.292 18.188,15.292 
	18.188,4.417 19.375,4.417 "/>
<line fill="none" stroke="#27AAE1" stroke-miterlimit="10" x1="11" y1="4.417" x2="12.625" y2="4.417"/>
<polyline fill="none" stroke="#27AAE1" stroke-miterlimit="10" points="3.875,15.292 8.75,15.292 8.75,4.417 9.875,4.417 "/>
</svg>
