<?xml version="1.0" encoding="utf-8"?>
<!-- Generator: Adobe Illustrator 16.0.0, SVG Export Plug-In . SVG Version: 6.00 Build 0)  -->
<!DOCTYPE svg PUBLIC "-//W3C//DTD SVG 1.1//EN" "http://www.w3.org/Graphics/SVG/1.1/DTD/svg11.dtd">
<svg version="1.1" id="Artwork" xmlns="http://www.w3.org/2000/svg" xmlns:xlink="http://www.w3.org/1999/xlink" x="0px" y="0px"
	 width="68.25px" height="18.333px" viewBox="0 0 68.25 18.333" enable-background="new 0 0 68.25 18.333" xml:space="preserve">
<path fill="none" stroke="#27AAE1" stroke-miterlimit="10" d="M8.166,1.992c1.5-0.833,3.75,6.584,3.75,6.584s3,7.417,4.167,7.5
	s3.917-7.074,3.917-7.074s3-7.725,3.917-7.075s3.917,7.056,3.917,7.056s2.583,6.68,3.75,7.095s4.167-7.095,4.167-7.095
	s2.749-7.366,3.833-7.095s3.917,7.1,3.917,7.1s2.666,7.708,3.833,7.106v-0.005c1.167,0.083,3.917-7.074,3.917-7.074
	s3-7.725,3.917-7.075c0.916,0.649,3.916,7.056,3.916,7.056s2.583,6.68,3.75,7.095s4.167-7.095,4.167-7.095"/>
<path fill="none" stroke="#27AAE1" stroke-miterlimit="10" d="M8.255,1.945c-1.5-0.834-3.75,6.584-3.75,6.584"/>
</svg>
