<?xml version="1.0" encoding="utf-8"?>
<!-- Generator: Adobe Illustrator 16.0.0, SVG Export Plug-In . SVG Version: 6.00 Build 0)  -->
<!DOCTYPE svg PUBLIC "-//W3C//DTD SVG 1.1//EN" "http://www.w3.org/Graphics/SVG/1.1/DTD/svg11.dtd">
<svg version="1.1" id="Artwork" xmlns="http://www.w3.org/2000/svg" xmlns:xlink="http://www.w3.org/1999/xlink" x="0px" y="0px"
	 width="68.25px" height="18.333px" viewBox="0 0 68.25 18.333" enable-background="new 0 0 68.25 18.333" xml:space="preserve">
<polyline fill="none" stroke="#27AAE1" stroke-miterlimit="10" points="2.75,14.021 5.188,14.021 5.188,1.833 7.438,1.833 
	7.438,14.021 9.5,14.021 9.5,1.833 11.75,1.833 11.75,14.021 13.938,14.021 13.938,1.833 16,1.833 16,14.021 20.313,14.021 
	20.313,1.833 25.688,1.833 25.688,14.021 30.5,14.021 30.5,1.833 35.563,1.833 35.563,14.021 40.625,14.021 40.625,1.833 
	45.625,1.833 45.625,14.021 50.188,14.021 50.188,1.833 52.125,1.833 52.125,14.021 54.25,14.021 54.25,1.833 56.375,1.833 
	56.375,14.021 58.813,14.021 58.813,1.833 60.938,1.833 60.938,14.021 63.438,14.021 "/>
</svg>
